# xmcd
#
# Track frame offsets: 
#        150
#        12694
#        21958
#        32175
#        41550
#        49910
#        64540
#        74522
#        85865
#        96160
#        105417
#        114610
#
# Disc length: 1734 seconds
#
# Revision: 0
# Processed by: cddbd v1.5PL3 Copyright (c) Steve Scherf et al.
# Submitted via: ExactAudioCopy v0.95a5
#
DISCID=a106c40c
DTITLE=The Lewis Family - The Golden Gospel Best Of The Lewis Family
DYEAR=1975
DGENRE=Bluegrass
TTITLE0=Rank Strangers To Me
TTITLE1=Don't Be Ashamed Of Jesus
TTITLE2=I'm Winging My Way Back Home
TTITLE3=Nearer Home
TTITLE4=One More River To Cross
TTITLE5=Walking My Lord Up Calvary Hill
TTITLE6=When The Morning Comes
TTITLE7=Picture On The Wall
TTITLE8=Just For Me
TTITLE9=Crossing The Bridge
TTITLE10=Time Is Moving On
TTITLE11=I Found A Hiding Place
EXTD=
EXTT0=
EXTT1=
EXTT2=
EXTT3=
EXTT4=
EXTT5=
EXTT6=
EXTT7=
EXTT8=
EXTT9=
EXTT10=
EXTT11=
PLAYORDER=
